<svg width="570" height="172" viewBox="0 0 570 172" fill="none" xmlns="http://www.w3.org/2000/svg">
<rect width="570" height="172" rx="10" fill="#FCCA3F" fill-opacity="0.1"/>
<path d="M189.594 109H184.281V63.3125H209.75V68.0312H189.594V84.75H208.531V89.4688H189.594V109ZM218.624 109V63.3125H223.936V109H218.624ZM243.091 90V109H237.779V63.3125H250.31C255.914 63.3125 260.05 64.3854 262.716 66.5312C265.404 68.6771 266.748 71.9062 266.748 76.2188C266.748 82.2604 263.685 86.3438 257.56 88.4688L269.966 109H263.685L252.623 90H243.091ZM243.091 85.4375H250.373C254.123 85.4375 256.873 84.6979 258.623 83.2188C260.373 81.7188 261.248 79.4792 261.248 76.5C261.248 73.4792 260.352 71.3021 258.56 69.9688C256.789 68.6354 253.935 67.9688 249.998 67.9688H243.091V85.4375ZM304.09 109H278.621V63.3125H304.09V68.0312H283.934V82.75H302.871V87.4375H283.934V104.25H304.09V109ZM315.526 63.3125H328.432C334.495 63.3125 338.88 64.2188 341.589 66.0312C344.297 67.8438 345.651 70.7083 345.651 74.625C345.651 77.3333 344.891 79.5729 343.37 81.3438C341.87 83.0938 339.672 84.2292 336.776 84.75V85.0625C343.714 86.25 347.182 89.8958 347.182 96C347.182 100.083 345.797 103.271 343.026 105.562C340.276 107.854 336.422 109 331.464 109H315.526V63.3125ZM320.839 82.875H329.589C333.339 82.875 336.037 82.2917 337.682 81.125C339.328 79.9375 340.151 77.9479 340.151 75.1562C340.151 72.5938 339.235 70.75 337.401 69.625C335.568 68.4792 332.651 67.9062 328.651 67.9062H320.839V82.875ZM320.839 87.375V104.469H330.37C334.057 104.469 336.828 103.76 338.682 102.344C340.557 100.906 341.495 98.6667 341.495 95.625C341.495 92.7917 340.537 90.7083 338.62 89.375C336.724 88.0417 333.828 87.375 329.932 87.375H320.839ZM387.025 109L381.337 94.4688H363.025L357.4 109H352.025L370.087 63.125H374.556L392.525 109H387.025ZM379.681 89.6875L374.369 75.5312C373.681 73.7396 372.973 71.5417 372.244 68.9375C371.785 70.9375 371.129 73.1354 370.275 75.5312L364.9 89.6875H379.681ZM425.867 96.8438C425.867 100.865 424.409 104 421.492 106.25C418.576 108.5 414.617 109.625 409.617 109.625C404.201 109.625 400.034 108.927 397.117 107.531V102.406C398.992 103.198 401.034 103.823 403.242 104.281C405.451 104.74 407.638 104.969 409.805 104.969C413.347 104.969 416.013 104.302 417.805 102.969C419.597 101.615 420.492 99.7396 420.492 97.3438C420.492 95.7604 420.17 94.4688 419.524 93.4688C418.899 92.4479 417.836 91.5104 416.336 90.6562C414.857 89.8021 412.597 88.8333 409.555 87.75C405.305 86.2292 402.263 84.4271 400.43 82.3438C398.617 80.2604 397.711 77.5417 397.711 74.1875C397.711 70.6667 399.034 67.8646 401.68 65.7812C404.326 63.6979 407.826 62.6562 412.18 62.6562C416.722 62.6562 420.899 63.4896 424.711 65.1562L423.055 69.7812C419.284 68.1979 415.617 67.4062 412.055 67.4062C409.242 67.4062 407.045 68.0104 405.461 69.2188C403.878 70.4271 403.086 72.1042 403.086 74.25C403.086 75.8333 403.378 77.1354 403.961 78.1562C404.545 79.1562 405.524 80.0833 406.899 80.9375C408.295 81.7708 410.42 82.6979 413.274 83.7188C418.065 85.4271 421.357 87.2604 423.149 89.2188C424.961 91.1771 425.867 93.7188 425.867 96.8438ZM461.96 109H436.491V63.3125H461.96V68.0312H441.804V82.75H460.741V87.4375H441.804V104.25H461.96V109Z" fill="#FCCA3F"/>
<path d="M29.1814 128.768L30.0367 127.576L70.3873 51.0306L70.4729 50.2206L52.6874 16.8131C52.3618 16.2022 51.8523 15.7091 51.2311 15.4036C50.6099 15.0982 49.9083 14.9958 49.2257 15.1109C48.5431 15.2261 47.914 15.553 47.4273 16.0453C46.9407 16.5377 46.6212 17.1706 46.5141 17.8545L29.1814 128.768Z" fill="#FFC24A"/>
<path d="M29.6846 127.863L30.3286 126.605L70.2616 50.8545L52.5214 17.3162C52.2289 16.7329 51.7552 16.2602 51.1714 15.9687C50.5876 15.6773 49.925 15.5828 49.2831 15.6996C48.6411 15.8163 48.0542 16.1379 47.6103 16.6162C47.1665 17.0945 46.8895 17.7037 46.821 18.3526L29.6846 127.863Z" fill="#FFA712"/>
<path d="M83.4381 75.4876L96.6804 61.9032L83.4331 36.6413C83.1415 36.0976 82.708 35.6432 82.1786 35.3264C81.6492 35.0096 81.0439 34.8423 80.4269 34.8423C79.81 34.8423 79.2046 35.0096 78.6753 35.3264C78.1459 35.6432 77.7123 36.0976 77.4208 36.6413L70.3418 50.1351V51.2873L83.4381 75.4876Z" fill="#F4BD62"/>
<path d="M83.2017 74.9343L96.0767 61.7525L83.2017 37.2C82.991 36.6685 82.631 36.2094 82.1652 35.8779C81.6994 35.5464 81.1477 35.3567 80.5765 35.3317C80.0054 35.3067 79.4392 35.4475 78.9462 35.737C78.4532 36.0265 78.0545 36.4525 77.7982 36.9635L70.684 50.6938L70.4727 51.3931L83.2017 74.9343Z" fill="#FFA50E"/>
<path d="M29.1914 128.774L29.5788 128.382L30.9825 127.813L82.6031 76.3836L83.2572 74.6025L70.3822 50.0601L29.1914 128.774Z" fill="#F6820C"/>
<path d="M85.0886 154.71L131.819 128.653L118.466 46.4879C118.37 45.9087 118.117 45.3671 117.733 44.9225C117.35 44.4779 116.852 44.1475 116.293 43.9676C115.734 43.7877 115.136 43.7653 114.566 43.9028C113.995 44.0404 113.473 44.3325 113.057 44.7471L29.1814 128.769L75.6349 154.705C77.0791 155.511 78.7054 155.934 80.3593 155.934C82.0131 155.934 83.6394 155.511 85.0836 154.705" fill="#FDE068"/>
<path d="M131.391 128.437L118.149 46.89C118.126 46.336 117.938 45.8014 117.611 45.3538C117.284 44.9063 116.831 44.5659 116.31 44.3757C115.789 44.1856 115.224 44.1542 114.685 44.2857C114.146 44.4171 113.659 44.7054 113.284 45.114L29.6846 128.613L75.6249 154.272C77.0576 155.071 78.6709 155.491 80.3115 155.491C81.9521 155.491 83.5654 155.071 84.9981 154.272L131.391 128.437Z" fill="#FCCA3F"/>
<path d="M85.0886 153.925C83.6445 154.731 82.0181 155.154 80.3643 155.154C78.7105 155.154 77.0841 154.731 75.64 153.925L29.5638 128.376L29.1814 128.769L75.6349 154.705C77.0791 155.511 78.7054 155.934 80.3593 155.934C82.0131 155.934 83.6394 155.511 85.0836 154.705L131.819 128.653L131.703 127.949L85.0886 153.925Z" fill="#EEAB37"/>
</svg>
