<svg width="570" height="172" viewBox="0 0 570 172" fill="none" xmlns="http://www.w3.org/2000/svg">
<rect width="570" height="172" rx="10" fill="#E96329" fill-opacity="0.1"/>
<path d="M218.969 109H213.656V87.5H189.594V109H184.281V63.3125H189.594V82.75H213.656V63.3125H218.969V109ZM246.874 109H241.561V68.0312H227.092V63.3125H261.342V68.0312H246.874V109ZM289.747 109L274.247 68.5H273.997C274.289 71.7083 274.435 75.5208 274.435 79.9375V109H269.529V63.3125H277.529L291.997 101H292.247L306.841 63.3125H314.779V109H309.466V79.5625C309.466 76.1875 309.612 72.5208 309.904 68.5625H309.654L294.029 109H289.747ZM328.621 109V63.3125H333.934V104.188H354.09V109H328.621ZM374.276 81.0938C379.089 81.0938 382.87 82.2917 385.62 84.6875C388.391 87.0625 389.776 90.3229 389.776 94.4688C389.776 99.1979 388.266 102.906 385.245 105.594C382.245 108.281 378.099 109.625 372.807 109.625C367.662 109.625 363.735 108.802 361.026 107.156V102.156C362.485 103.094 364.297 103.833 366.464 104.375C368.63 104.896 370.766 105.156 372.87 105.156C376.537 105.156 379.38 104.292 381.401 102.562C383.443 100.833 384.464 98.3333 384.464 95.0625C384.464 88.6875 380.557 85.5 372.745 85.5C370.766 85.5 368.12 85.8021 364.807 86.4062L362.12 84.6875L363.839 63.3125H386.557V68.0938H368.276L367.12 81.8125C369.516 81.3333 371.901 81.0938 374.276 81.0938Z" fill="#E96329"/>
<path d="M29.6411 21.5858H142.366L132.11 137.327L85.8779 150.414L39.9109 137.327L29.6411 21.5858ZM67.3808 73.9168L66.1409 59.3326L120.127 59.347L121.367 45.2788L50.6323 45.2645L54.3733 88.2501H103.357L101.616 106.64L85.9998 110.954L70.1328 106.618L69.1223 95.295H55.1186L56.8888 117.676L85.9998 125.459L114.867 117.719L118.866 73.924H67.3808V73.9168Z" fill="#E96329"/>
</svg>
