<svg width="570" height="172" viewBox="0 0 570 172" fill="none" xmlns="http://www.w3.org/2000/svg">
<rect width="570" height="172" rx="10" fill="#E76F00" fill-opacity="0.1"/>
<path d="M177.625 121.031C175.667 121.031 174.125 120.75 173 120.188V115.656C174.479 116.073 176.021 116.281 177.625 116.281C179.688 116.281 181.25 115.656 182.312 114.406C183.396 113.156 183.938 111.354 183.938 109V63.3125H189.25V108.562C189.25 112.521 188.25 115.583 186.25 117.75C184.25 119.938 181.375 121.031 177.625 121.031ZM231.405 109L225.718 94.4688H207.405L201.78 109H196.405L214.468 63.125H218.936L236.905 109H231.405ZM224.061 89.6875L218.749 75.5312C218.061 73.7396 217.353 71.5417 216.624 68.9375C216.165 70.9375 215.509 73.1354 214.655 75.5312L209.28 89.6875H224.061ZM270.56 63.3125H276.279L259.81 109H254.56L238.185 63.3125H243.81L254.31 92.875C255.518 96.2708 256.477 99.5729 257.185 102.781C257.935 99.4062 258.914 96.0417 260.123 92.6875L270.56 63.3125ZM312.59 109L306.902 94.4688H288.59L282.965 109H277.59L295.652 63.125H300.121L318.09 109H312.59ZM305.246 89.6875L299.934 75.5312C299.246 73.7396 298.538 71.5417 297.809 68.9375C297.35 70.9375 296.694 73.1354 295.84 75.5312L290.465 89.6875H305.246Z" fill="#E76F00"/>
<path d="M57.9252 121.815C57.9252 121.815 52.8213 124.765 61.5577 125.763C72.1418 126.963 77.5508 126.791 89.2146 124.597C89.2146 124.597 92.2813 126.508 96.5634 128.164C70.417 139.302 37.3881 127.518 57.9252 121.815Z" fill="#5382A1"/>
<path d="M54.7301 107.279C54.7301 107.279 49.0055 111.491 57.7485 112.39C69.0546 113.55 77.9831 113.644 93.4333 110.687C93.4333 110.687 95.5703 112.841 98.9305 114.018C67.3174 123.207 32.1063 114.743 54.7301 107.279Z" fill="#5382A1"/>
<path d="M81.6651 82.6228C88.1078 89.9954 79.9724 96.63 79.9724 96.63C79.9724 96.63 96.331 88.236 88.8182 77.7244C81.8016 67.9224 76.4204 63.0514 105.551 46.2588C105.551 46.2588 59.8259 57.6099 81.6651 82.6224" fill="#E76F00"/>
<path d="M116.246 132.566C116.246 132.566 120.023 135.659 112.086 138.052C96.9941 142.597 49.2707 143.969 36.0132 138.234C31.2476 136.173 40.1847 133.313 42.9958 132.713C45.9275 132.081 47.6031 132.199 47.6031 132.199C42.3031 128.488 13.3464 139.486 32.8947 142.635C86.205 151.229 130.074 138.766 116.246 132.566Z" fill="#5382A1"/>
<path d="M60.3794 92.2191C60.3794 92.2191 36.1047 97.9504 51.7834 100.031C58.4032 100.912 71.6 100.713 83.8926 99.689C93.9388 98.8472 104.026 97.0559 104.026 97.0559C104.026 97.0559 100.484 98.5639 97.9213 100.303C73.2703 106.748 25.6489 103.75 39.3585 97.1578C50.9527 91.5872 60.3798 92.2191 60.3798 92.2191" fill="#5382A1"/>
<path d="M103.926 116.414C128.985 103.471 117.399 91.0324 109.312 92.7083C107.33 93.1181 106.446 93.4733 106.446 93.4733C106.446 93.4733 107.182 92.3278 108.587 91.8319C124.586 86.2409 136.89 108.321 103.423 117.066C103.423 117.067 103.81 116.722 103.926 116.414Z" fill="#5382A1"/>
<path d="M88.8182 19.1425C88.8182 19.1425 102.696 32.9422 75.6554 54.1611C53.9717 71.1828 70.7108 80.8879 75.6465 91.9765C62.9892 80.6254 53.7003 70.6327 59.9322 61.3327C69.0785 47.6802 94.4175 41.0613 88.8182 19.1421" fill="#E76F00"/>
<path d="M62.8418 151.487C86.8954 153.018 123.832 150.638 124.707 139.325C124.707 139.325 123.025 143.614 104.828 147.019C84.2978 150.86 58.977 150.411 43.9587 147.95C43.9591 147.95 47.0332 150.479 62.8422 151.487" fill="#5382A1"/>
</svg>
