<svg width="570" height="172" viewBox="0 0 570 172" fill="none" xmlns="http://www.w3.org/2000/svg">
<rect width="570" height="172" rx="10" fill="#E9D44C" fill-opacity="0.1"/>
<path d="M21.5 21.5H150.5V150.5H21.5V21.5ZM139.929 119.734C138.99 113.85 135.156 108.905 123.79 104.289C119.834 102.433 115.441 101.15 114.122 98.169C113.635 96.3917 113.563 95.4313 113.878 94.3778C114.688 90.9092 118.802 89.87 122.027 90.8303C124.127 91.4753 126.062 93.0878 127.273 95.675C132.827 92.0415 132.827 92.0415 136.704 89.6263C135.249 87.376 134.525 86.3942 133.558 85.4267C130.168 81.6427 125.653 79.7077 118.322 79.8725L114.538 80.3527C110.904 81.2413 107.436 83.1835 105.343 85.7563C99.2153 92.6937 100.986 104.784 108.403 109.793C115.735 115.276 126.47 116.48 127.839 121.64C129.129 127.932 123.166 129.946 117.268 129.222C112.918 128.247 110.496 126.076 107.837 122.041L98.0042 127.688C99.1293 130.261 100.419 131.394 102.354 133.651C111.707 143.082 135.092 142.602 139.284 128.248C139.435 127.767 140.574 124.464 139.685 119.382L139.929 119.734V119.734ZM91.6473 80.7898H79.5643C79.5643 91.203 79.5142 101.559 79.5142 111.993C79.5142 118.615 79.851 124.693 78.7688 126.563C76.9987 130.268 72.4192 129.795 70.348 129.136C68.2195 128.09 67.1373 126.635 65.8832 124.542C65.5463 123.983 65.2955 123.496 65.2023 123.496L55.3983 129.545C57.0395 132.934 59.4332 135.844 62.522 137.693C67.1158 140.438 73.2863 141.327 79.7507 139.879C83.9647 138.661 87.5982 136.159 89.483 132.289C92.235 127.294 91.6473 121.16 91.6258 114.308C91.6832 103.264 91.6258 92.2135 91.6258 81.0908L91.6473 80.7898Z" fill="#E9D44C"/>
<path d="M177.625 121.031C175.667 121.031 174.125 120.75 173 120.188V115.656C174.479 116.073 176.021 116.281 177.625 116.281C179.688 116.281 181.25 115.656 182.312 114.406C183.396 113.156 183.938 111.354 183.938 109V63.3125H189.25V108.562C189.25 112.521 188.25 115.583 186.25 117.75C184.25 119.938 181.375 121.031 177.625 121.031ZM231.405 109L225.718 94.4688H207.405L201.78 109H196.405L214.468 63.125H218.936L236.905 109H231.405ZM224.061 89.6875L218.749 75.5312C218.061 73.7396 217.353 71.5417 216.624 68.9375C216.165 70.9375 215.509 73.1354 214.655 75.5312L209.28 89.6875H224.061ZM270.56 63.3125H276.279L259.81 109H254.56L238.185 63.3125H243.81L254.31 92.875C255.518 96.2708 256.477 99.5729 257.185 102.781C257.935 99.4062 258.914 96.0417 260.123 92.6875L270.56 63.3125ZM312.59 109L306.902 94.4688H288.59L282.965 109H277.59L295.652 63.125H300.121L318.09 109H312.59ZM305.246 89.6875L299.934 75.5312C299.246 73.7396 298.538 71.5417 297.809 68.9375C297.35 70.9375 296.694 73.1354 295.84 75.5312L290.465 89.6875H305.246ZM351.432 96.8438C351.432 100.865 349.974 104 347.057 106.25C344.141 108.5 340.182 109.625 335.182 109.625C329.766 109.625 325.599 108.927 322.682 107.531V102.406C324.557 103.198 326.599 103.823 328.807 104.281C331.016 104.74 333.203 104.969 335.37 104.969C338.912 104.969 341.578 104.302 343.37 102.969C345.162 101.615 346.057 99.7396 346.057 97.3438C346.057 95.7604 345.735 94.4688 345.089 93.4688C344.464 92.4479 343.401 91.5104 341.901 90.6562C340.422 89.8021 338.162 88.8333 335.12 87.75C330.87 86.2292 327.828 84.4271 325.995 82.3438C324.182 80.2604 323.276 77.5417 323.276 74.1875C323.276 70.6667 324.599 67.8646 327.245 65.7812C329.891 63.6979 333.391 62.6562 337.745 62.6562C342.287 62.6562 346.464 63.4896 350.276 65.1562L348.62 69.7812C344.849 68.1979 341.182 67.4062 337.62 67.4062C334.807 67.4062 332.61 68.0104 331.026 69.2188C329.443 70.4271 328.651 72.1042 328.651 74.25C328.651 75.8333 328.943 77.1354 329.526 78.1562C330.11 79.1562 331.089 80.0833 332.464 80.9375C333.86 81.7708 335.985 82.6979 338.839 83.7188C343.63 85.4271 346.922 87.2604 348.714 89.2188C350.526 91.1771 351.432 93.7188 351.432 96.8438ZM381.619 67.4062C376.598 67.4062 372.629 69.0833 369.712 72.4375C366.817 75.7708 365.369 80.3438 365.369 86.1562C365.369 92.1354 366.765 96.7604 369.556 100.031C372.369 103.281 376.369 104.906 381.556 104.906C384.744 104.906 388.379 104.333 392.462 103.188V107.844C389.296 109.031 385.39 109.625 380.744 109.625C374.015 109.625 368.817 107.583 365.15 103.5C361.504 99.4167 359.681 93.6146 359.681 86.0938C359.681 81.3854 360.556 77.2604 362.306 73.7188C364.077 70.1771 366.619 67.4479 369.931 65.5312C373.265 63.6146 377.181 62.6562 381.681 62.6562C386.473 62.6562 390.66 63.5312 394.244 65.2812L391.994 69.8438C388.535 68.2188 385.077 67.4062 381.619 67.4062ZM409.024 90V109H403.711V63.3125H416.242C421.847 63.3125 425.982 64.3854 428.649 66.5312C431.336 68.6771 432.68 71.9062 432.68 76.2188C432.68 82.2604 429.617 86.3438 423.492 88.4688L435.899 109H429.617L418.555 90H409.024ZM409.024 85.4375H416.305C420.055 85.4375 422.805 84.6979 424.555 83.2188C426.305 81.7188 427.18 79.4792 427.18 76.5C427.18 73.4792 426.284 71.3021 424.492 69.9688C422.722 68.6354 419.867 67.9688 415.93 67.9688H409.024V85.4375ZM444.554 109V63.3125H449.866V109H444.554ZM492.677 76.625C492.677 81.25 491.094 84.8125 487.927 87.3125C484.782 89.7917 480.271 91.0312 474.396 91.0312H469.021V109H463.709V63.3125H475.552C486.969 63.3125 492.677 67.75 492.677 76.625ZM469.021 86.4688H473.802C478.511 86.4688 481.917 85.7083 484.021 84.1875C486.125 82.6667 487.177 80.2292 487.177 76.875C487.177 73.8542 486.188 71.6042 484.209 70.125C482.23 68.6458 479.146 67.9062 474.959 67.9062H469.021V86.4688ZM517.614 109H512.301V68.0312H497.832V63.3125H532.082V68.0312H517.614V109Z" fill="#E9D44C"/>
</svg>
