<svg width="570" height="172" viewBox="0 0 570 172" fill="none" xmlns="http://www.w3.org/2000/svg">
<rect width="570" height="172" rx="10" fill="#005F86" fill-opacity="0.1"/>
<path d="M204.5 109L189 68.5H188.75C189.042 71.7083 189.188 75.5208 189.188 79.9375V109H184.281V63.3125H192.281L206.75 101H207L221.594 63.3125H229.531V109H224.219V79.5625C224.219 76.1875 224.365 72.5208 224.656 68.5625H224.406L208.781 109H204.5ZM254.999 86.1562L267.186 63.3125H272.936L257.686 91.2812V109H252.311V91.5312L237.092 63.3125H242.905L254.999 86.1562ZM306.31 96.8438C306.31 100.865 304.852 104 301.935 106.25C299.018 108.5 295.06 109.625 290.06 109.625C284.643 109.625 280.477 108.927 277.56 107.531V102.406C279.435 103.198 281.477 103.823 283.685 104.281C285.893 104.74 288.081 104.969 290.247 104.969C293.789 104.969 296.456 104.302 298.247 102.969C300.039 101.615 300.935 99.7396 300.935 97.3438C300.935 95.7604 300.612 94.4688 299.966 93.4688C299.341 92.4479 298.279 91.5104 296.779 90.6562C295.3 89.8021 293.039 88.8333 289.997 87.75C285.747 86.2292 282.706 84.4271 280.872 82.3438C279.06 80.2604 278.154 77.5417 278.154 74.1875C278.154 70.6667 279.477 67.8646 282.122 65.7812C284.768 63.6979 288.268 62.6562 292.622 62.6562C297.164 62.6562 301.341 63.4896 305.154 65.1562L303.497 69.7812C299.727 68.1979 296.06 67.4062 292.497 67.4062C289.685 67.4062 287.487 68.0104 285.904 69.2188C284.32 70.4271 283.529 72.1042 283.529 74.25C283.529 75.8333 283.82 77.1354 284.404 78.1562C284.987 79.1562 285.966 80.0833 287.341 80.9375C288.737 81.7708 290.862 82.6979 293.716 83.7188C298.508 85.4271 301.8 87.2604 303.591 89.2188C305.404 91.1771 306.31 93.7188 306.31 96.8438ZM356.59 86.0938C356.59 91.9479 355.413 96.8125 353.059 100.688C350.705 104.562 347.382 107.188 343.09 108.562L353.965 119.875H346.246L337.34 109.562L335.621 109.625C328.892 109.625 323.694 107.573 320.027 103.469C316.382 99.3438 314.559 93.5312 314.559 86.0312C314.559 78.5938 316.392 72.8333 320.059 68.75C323.725 64.6458 328.934 62.5938 335.684 62.5938C342.246 62.5938 347.371 64.6771 351.059 68.8438C354.746 73.0104 356.59 78.7604 356.59 86.0938ZM320.184 86.0938C320.184 92.2812 321.496 96.9792 324.121 100.188C326.767 103.375 330.6 104.969 335.621 104.969C340.684 104.969 344.507 103.375 347.09 100.188C349.673 97 350.965 92.3021 350.965 86.0938C350.965 79.9479 349.673 75.2917 347.09 72.125C344.527 68.9375 340.725 67.3438 335.684 67.3438C330.621 67.3438 326.767 68.9479 324.121 72.1562C321.496 75.3438 320.184 79.9896 320.184 86.0938ZM368.089 109V63.3125H373.401V104.188H393.557V109H368.089Z" fill="#DC8801"/>
<path d="M146.58 120.959C139.458 120.779 133.939 121.503 129.309 123.492C127.974 124.034 125.837 124.035 125.659 125.753C126.371 126.477 126.46 127.653 127.083 128.647C128.153 130.456 130.021 132.898 131.713 134.165C133.582 135.612 135.452 137.058 137.41 138.325C140.882 140.496 144.8 141.761 148.183 143.932C150.142 145.197 152.099 146.827 154.058 148.183C155.037 148.906 155.66 150.082 156.907 150.534V150.263C156.283 149.449 156.105 148.273 155.483 147.369C154.593 146.464 153.702 145.65 152.811 144.746C150.23 141.219 147.025 138.144 143.553 135.612C140.705 133.622 134.472 130.909 133.315 127.562C133.315 127.562 133.226 127.472 133.137 127.381C135.095 127.201 137.41 126.477 139.28 125.934C142.307 125.12 145.066 125.301 148.183 124.487C149.607 124.125 151.031 123.673 152.455 123.221V122.407C150.854 120.779 149.696 118.609 148.005 117.071C143.464 113.091 138.478 109.202 133.315 105.946C130.555 104.137 126.994 102.961 124.056 101.424C122.989 100.881 121.208 100.61 120.585 99.7057C118.982 97.7162 118.091 95.0936 116.934 92.7419C114.353 87.767 111.86 82.2504 109.634 77.0052C108.032 73.4776 107.053 69.9499 105.094 66.6947C95.9245 51.3194 85.9536 42.0038 70.6415 32.8686C67.3472 30.9696 63.4302 30.1556 59.246 29.1611C57.0212 29.0701 54.7948 28.8898 52.5694 28.7988C51.1448 28.1656 49.7203 26.4475 48.4738 25.6335C43.4003 22.3772 30.3126 15.3235 26.5736 24.639C24.1697 30.5174 30.135 36.3053 32.1818 39.2907C33.6965 41.3706 35.6542 43.7219 36.7226 46.0736C37.3459 47.6103 37.5234 49.2395 38.1467 50.8671C39.5718 54.8454 40.9063 59.2781 42.7765 62.9867C43.7559 64.8857 44.8238 66.8751 46.0703 68.5937C46.7826 69.5881 48.0286 70.0409 48.2962 71.6685C47.0502 73.4776 46.9607 76.1912 46.2479 78.452C43.0431 88.672 44.2901 101.334 48.8299 108.84C50.254 111.101 53.6373 116.076 58.1776 114.176C62.1842 112.549 61.2938 107.394 62.4503 102.871C62.7184 101.785 62.5403 101.062 63.074 100.339V100.52C64.3205 103.052 65.5665 105.495 66.724 108.027C69.4841 112.458 74.291 117.071 78.297 120.146C80.4344 121.773 82.1256 124.577 84.7966 125.572V125.301H84.618C84.0838 124.486 83.2825 124.125 82.5707 123.492C80.9686 121.864 79.1874 119.874 77.9414 118.065C74.203 113 70.9081 107.393 67.9705 101.605C66.5464 98.8017 65.2994 95.7263 64.1425 92.9228C63.6077 91.8363 63.6077 90.2092 62.7179 89.667C61.3824 91.6564 59.4241 93.375 58.4447 95.8167C56.7541 99.7057 56.5755 104.499 55.9522 109.473C55.5961 109.564 55.7737 109.473 55.5956 109.655C52.7475 108.93 51.7681 105.946 50.6991 103.414C48.0281 96.9926 47.5829 86.6821 49.8983 79.266C50.5216 77.3665 53.1926 71.3977 52.1242 69.5887C51.59 67.8701 49.8088 66.8751 48.8299 65.5188C47.673 63.8002 46.426 61.6304 45.6251 59.7304C43.4883 54.6656 42.4199 49.058 40.1055 43.9932C39.037 41.6415 37.1683 39.2003 35.6542 37.0294C33.963 34.5877 32.0933 32.8686 30.7578 29.9747C30.3131 28.9802 29.6893 27.3521 30.4016 26.2666C30.5797 25.543 30.9353 25.2722 31.6481 25.0913C32.8056 24.0958 36.0999 25.3621 37.2563 25.9048C40.5506 27.2606 43.3102 28.528 46.0703 30.4269C47.3163 31.3315 48.6518 33.0501 50.254 33.5023H52.1237C54.9728 34.135 58.1771 33.6832 60.8482 34.4968C65.567 36.0339 69.8397 38.2952 73.6682 40.7375C85.3308 48.244 94.9446 58.9163 101.444 71.6685C102.513 73.7479 102.957 75.6484 103.937 77.8183C105.807 82.2504 108.121 86.7725 109.99 91.1137C111.86 95.3639 113.64 99.7057 116.311 103.233C117.647 105.132 122.988 106.127 125.392 107.122C127.172 107.936 129.932 108.66 131.535 109.654C134.561 111.553 137.588 113.725 140.437 115.804C141.862 116.89 146.312 119.151 146.58 120.959Z" fill="#005F86"/>
<path d="M55.7748 42.3645C54.2617 42.3645 53.1937 42.5464 52.1252 42.8173V42.9982H52.3033C53.0161 44.4454 54.2617 45.4404 55.1515 46.7062C55.8644 48.1529 56.4871 49.6007 57.2 51.0479C57.2885 50.957 57.3775 50.867 57.3775 50.867C58.6246 49.962 59.2473 48.5153 59.2473 46.3444C58.7131 45.7118 58.6241 45.0786 58.1789 44.4454C57.6452 43.5404 56.4871 43.0886 55.7748 42.3645Z" fill="#005F86"/>
</svg>
