<svg width="570" height="172" viewBox="0 0 570 172" fill="none" xmlns="http://www.w3.org/2000/svg">
<rect width="570" height="172" rx="10" fill="#5FD3F2" fill-opacity="0.1"/>
<path d="M189.594 90V109H184.281V63.3125H196.812C202.417 63.3125 206.552 64.3854 209.219 66.5312C211.906 68.6771 213.25 71.9062 213.25 76.2188C213.25 82.2604 210.188 86.3438 204.062 88.4688L216.469 109H210.188L199.125 90H189.594ZM189.594 85.4375H196.875C200.625 85.4375 203.375 84.6979 205.125 83.2188C206.875 81.7188 207.75 79.4792 207.75 76.5C207.75 73.4792 206.854 71.3021 205.062 69.9688C203.292 68.6354 200.438 67.9688 196.5 67.9688H189.594V85.4375ZM250.592 109H225.124V63.3125H250.592V68.0312H230.436V82.75H249.374V87.4375H230.436V104.25H250.592V109ZM290.747 109L285.06 94.4688H266.747L261.122 109H255.747L273.81 63.125H278.279L296.247 109H290.747ZM283.404 89.6875L278.091 75.5312C277.404 73.7396 276.695 71.5417 275.966 68.9375C275.508 70.9375 274.852 73.1354 273.997 75.5312L268.622 89.6875H283.404ZM323.371 67.4062C318.35 67.4062 314.382 69.0833 311.465 72.4375C308.569 75.7708 307.121 80.3438 307.121 86.1562C307.121 92.1354 308.517 96.7604 311.309 100.031C314.121 103.281 318.121 104.906 323.309 104.906C326.496 104.906 330.132 104.333 334.215 103.188V107.844C331.048 109.031 327.142 109.625 322.496 109.625C315.767 109.625 310.569 107.583 306.902 103.5C303.257 99.4167 301.434 93.6146 301.434 86.0938C301.434 81.3854 302.309 77.2604 304.059 73.7188C305.83 70.1771 308.371 67.4479 311.684 65.5312C315.017 63.6146 318.934 62.6562 323.434 62.6562C328.225 62.6562 332.413 63.5312 335.996 65.2812L333.746 69.8438C330.288 68.2188 326.83 67.4062 323.371 67.4062ZM359.526 109H354.214V68.0312H339.745V63.3125H373.995V68.0312H359.526V109Z" fill="#5FD3F2"/>
<path d="M86.0005 93.3814C93.0656 93.3814 98.793 87.654 98.793 80.5889C98.793 73.5238 93.0656 67.7964 86.0005 67.7964C78.9354 67.7964 73.208 73.5238 73.208 80.5889C73.208 87.654 78.9354 93.3814 86.0005 93.3814Z" fill="#5FD3F2"/>
<path d="M50.1811 106.024L47.3502 105.3C26.3232 99.9892 14.2617 90.9592 14.2617 80.5603C14.2617 70.1543 26.3304 61.1315 47.3502 55.821L50.1811 55.1043L50.9766 57.9065C53.1018 65.243 55.8247 72.393 59.1179 79.2847L59.7271 80.5603L59.1179 81.836C55.8212 88.7375 53.0907 95.8898 50.9766 103.229L50.1811 106.024ZM46.0459 62.3427C30.0714 66.8433 20.2602 73.709 20.2602 80.5603C20.2602 87.3973 30.0642 94.2702 46.0459 98.7637C48.0024 92.543 50.3674 86.4585 53.1051 80.5603C50.3476 74.6523 47.9892 68.5661 46.0459 62.3427ZM121.812 106.024L121.024 103.214C118.893 95.8763 116.168 88.7241 112.875 81.8288L112.266 80.5603L112.875 79.2775C116.172 72.3903 118.888 65.2308 121.024 57.8922L121.812 55.0972L124.643 55.8138C145.677 61.1243 157.731 70.1472 157.731 80.5603C157.731 90.9663 145.67 99.9892 124.643 105.3L121.812 106.024ZM118.874 80.5603C121.74 86.7667 124.127 92.8727 125.947 98.7637C141.929 94.2702 151.74 87.3973 151.74 80.5603C151.74 73.709 141.936 66.8505 125.947 62.3427C123.993 68.5642 121.63 74.65 118.874 80.5603Z" fill="#5FD3F2"/>
<path d="M46.003 62.3142L45.2147 59.5192C39.295 38.6786 41.0867 23.7504 50.1382 18.5474C58.989 13.4232 73.2292 19.4791 88.143 34.7799L90.1784 36.8726L88.143 38.9581C82.846 44.467 78.0045 50.3965 73.6664 56.6884L72.8565 57.8494L71.4519 57.9641C63.8235 58.5632 56.2568 59.7832 48.8267 61.6119L46.003 62.3142ZM57.3407 22.6897C55.7354 22.6897 54.3164 23.0409 53.1195 23.7289C47.1855 27.1474 46.1392 39.0512 50.2242 55.1189C56.6097 53.7071 63.0525 52.6966 69.5455 52.1304C73.3046 46.7988 77.4053 41.7165 81.822 36.9156C72.4839 27.8354 63.6689 22.6897 57.3407 22.6897ZM114.653 144.408C106.139 144.408 95.2022 137.987 83.8502 126.334L81.822 124.249L83.8502 122.17C89.1481 116.652 93.9918 110.716 98.334 104.418L99.1367 103.272L100.527 103.136C108.158 102.547 115.728 101.332 123.159 99.5021L125.99 98.7854L126.786 101.588C132.677 122.414 130.892 137.364 121.855 142.567C119.661 143.81 117.174 144.446 114.653 144.408ZM90.1784 124.198C99.5094 133.279 108.332 138.431 114.653 138.431C116.265 138.431 117.684 138.073 118.874 137.392C124.815 133.967 125.868 122.041 121.769 105.974C115.391 107.393 108.941 108.41 102.433 108.976C98.6903 114.316 94.5963 119.402 90.1784 124.198Z" fill="#5FD3F2"/>
<path d="M125.99 62.3138L123.159 61.6043C115.728 59.7699 108.158 58.5498 100.527 57.9565L99.1366 57.8346L98.334 56.6736C93.9978 50.3783 89.1536 44.4484 83.8501 38.9433L81.822 36.8578L83.8501 34.7795C98.7568 19.4858 112.99 13.43 121.855 18.547C130.899 23.7571 132.698 38.6853 126.786 59.5188L125.99 62.3138ZM102.433 52.13C109.27 52.7391 115.749 53.764 121.769 55.1185C125.861 39.0508 124.815 27.147 118.874 23.7213C112.968 20.3028 101.853 25.5345 90.1783 36.9151C94.593 41.7168 98.6923 46.7908 102.433 52.13ZM57.3406 144.408C54.8189 144.444 52.333 143.808 50.1381 142.566C41.0866 137.363 39.295 122.421 45.2075 101.587L45.9815 98.785L48.8123 99.5016C55.721 101.243 63.332 102.469 71.4446 103.135L72.835 103.271L73.6448 104.418C77.9735 110.71 82.8181 116.651 88.1215 122.17L90.1568 124.248L88.1215 126.334C76.7766 137.994 65.8403 144.408 57.3406 144.408ZM50.2241 105.98C46.1391 122.048 47.1855 133.973 53.1195 137.399C59.032 140.767 70.1116 135.571 81.822 124.198C77.407 119.396 73.3063 114.313 69.5455 108.983C63.046 108.408 56.5915 107.405 50.2241 105.98Z" fill="#5FD3F2"/>
<path d="M85.9995 109.743C81.076 109.743 76.0235 109.535 70.9495 109.112L69.5448 108.991L68.735 107.83C65.8737 103.715 63.1816 99.4857 60.6653 95.1517C58.1677 90.806 55.8462 86.3615 53.7065 81.8289L53.1045 80.5604L53.7065 79.2775C55.8493 74.7482 58.1642 70.3049 60.6653 65.9619C63.1522 61.6905 65.8683 57.4192 68.735 53.2769L69.5448 52.1302L70.9495 52.0012C80.9605 51.1627 91.0241 51.1627 101.035 52.0012L102.425 52.1374L103.235 53.284C108.967 61.5167 114.001 70.2139 118.285 79.2847L118.88 80.5675L118.285 81.836C114.013 90.913 108.978 99.6111 103.235 107.837L102.425 108.998L101.035 109.12C95.9755 109.528 90.9158 109.743 85.9995 109.743ZM72.8558 103.264C81.7067 103.931 90.2923 103.931 99.136 103.264C104.073 96.0347 108.462 88.4455 112.265 80.5604C108.475 72.6681 104.086 65.0779 99.136 57.8564C90.3889 57.1827 81.6029 57.1827 72.8558 57.8564C67.9018 65.0753 63.5123 72.6658 59.7265 80.5604C63.5383 88.4411 67.9267 96.0297 72.8558 103.264Z" fill="#5FD3F2"/>
</svg>
