<svg width="570" height="172" viewBox="0 0 570 172" fill="none" xmlns="http://www.w3.org/2000/svg">
<rect width="570" height="172" rx="10" fill="#E086B1" fill-opacity="0.1"/>
<path d="M210.062 96.8438C210.062 100.865 208.604 104 205.688 106.25C202.771 108.5 198.812 109.625 193.812 109.625C188.396 109.625 184.229 108.927 181.312 107.531V102.406C183.188 103.198 185.229 103.823 187.438 104.281C189.646 104.74 191.833 104.969 194 104.969C197.542 104.969 200.208 104.302 202 102.969C203.792 101.615 204.688 99.7396 204.688 97.3438C204.688 95.7604 204.365 94.4688 203.719 93.4688C203.094 92.4479 202.031 91.5104 200.531 90.6562C199.052 89.8021 196.792 88.8333 193.75 87.75C189.5 86.2292 186.458 84.4271 184.625 82.3438C182.812 80.2604 181.906 77.5417 181.906 74.1875C181.906 70.6667 183.229 67.8646 185.875 65.7812C188.521 63.6979 192.021 62.6562 196.375 62.6562C200.917 62.6562 205.094 63.4896 208.906 65.1562L207.25 69.7812C203.479 68.1979 199.812 67.4062 196.25 67.4062C193.438 67.4062 191.24 68.0104 189.656 69.2188C188.073 70.4271 187.281 72.1042 187.281 74.25C187.281 75.8333 187.573 77.1354 188.156 78.1562C188.74 79.1562 189.719 80.0833 191.094 80.9375C192.49 81.7708 194.615 82.6979 197.469 83.7188C202.26 85.4271 205.552 87.2604 207.344 89.2188C209.156 91.1771 210.062 93.7188 210.062 96.8438ZM249.405 109L243.717 94.4688H225.405L219.78 109H214.405L232.467 63.125H236.936L254.905 109H249.405ZM242.061 89.6875L236.749 75.5312C236.061 73.7396 235.353 71.5417 234.624 68.9375C234.165 70.9375 233.509 73.1354 232.655 75.5312L227.28 89.6875H242.061ZM288.247 96.8438C288.247 100.865 286.789 104 283.872 106.25C280.956 108.5 276.997 109.625 271.997 109.625C266.581 109.625 262.414 108.927 259.497 107.531V102.406C261.372 103.198 263.414 103.823 265.622 104.281C267.831 104.74 270.018 104.969 272.185 104.969C275.727 104.969 278.393 104.302 280.185 102.969C281.977 101.615 282.872 99.7396 282.872 97.3438C282.872 95.7604 282.55 94.4688 281.904 93.4688C281.279 92.4479 280.216 91.5104 278.716 90.6562C277.237 89.8021 274.977 88.8333 271.935 87.75C267.685 86.2292 264.643 84.4271 262.81 82.3438C260.997 80.2604 260.091 77.5417 260.091 74.1875C260.091 70.6667 261.414 67.8646 264.06 65.7812C266.706 63.6979 270.206 62.6562 274.56 62.6562C279.102 62.6562 283.279 63.4896 287.091 65.1562L285.435 69.7812C281.664 68.1979 277.997 67.4062 274.435 67.4062C271.622 67.4062 269.425 68.0104 267.841 69.2188C266.258 70.4271 265.466 72.1042 265.466 74.25C265.466 75.8333 265.758 77.1354 266.341 78.1562C266.925 79.1562 267.904 80.0833 269.279 80.9375C270.675 81.7708 272.8 82.6979 275.654 83.7188C280.445 85.4271 283.737 87.2604 285.529 89.2188C287.341 91.1771 288.247 93.7188 288.247 96.8438ZM324.652 96.8438C324.652 100.865 323.194 104 320.277 106.25C317.361 108.5 313.402 109.625 308.402 109.625C302.986 109.625 298.819 108.927 295.902 107.531V102.406C297.777 103.198 299.819 103.823 302.027 104.281C304.236 104.74 306.423 104.969 308.59 104.969C312.132 104.969 314.798 104.302 316.59 102.969C318.382 101.615 319.277 99.7396 319.277 97.3438C319.277 95.7604 318.955 94.4688 318.309 93.4688C317.684 92.4479 316.621 91.5104 315.121 90.6562C313.642 89.8021 311.382 88.8333 308.34 87.75C304.09 86.2292 301.048 84.4271 299.215 82.3438C297.402 80.2604 296.496 77.5417 296.496 74.1875C296.496 70.6667 297.819 67.8646 300.465 65.7812C303.111 63.6979 306.611 62.6562 310.965 62.6562C315.507 62.6562 319.684 63.4896 323.496 65.1562L321.84 69.7812C318.069 68.1979 314.402 67.4062 310.84 67.4062C308.027 67.4062 305.83 68.0104 304.246 69.2188C302.663 70.4271 301.871 72.1042 301.871 74.25C301.871 75.8333 302.163 77.1354 302.746 78.1562C303.33 79.1562 304.309 80.0833 305.684 80.9375C307.08 81.7708 309.205 82.6979 312.059 83.7188C316.85 85.4271 320.142 87.2604 321.934 89.2188C323.746 91.1771 324.652 93.7188 324.652 96.8438Z" fill="#E086B1"/>
<path d="M91 29C122.489 29 148 54.5111 148 86C148 117.489 122.489 143 91 143C59.5111 143 34 117.489 34 86C34 54.5111 59.5111 29 91 29ZM79.6606 104.981C80.4978 108.063 80.4051 110.92 79.5501 113.499L79.2509 114.354C79.1404 114.65 78.9944 114.927 78.8804 115.191C78.1945 116.598 77.3077 117.898 76.2477 119.049C72.9239 122.651 68.3069 124.023 66.319 122.872C64.1672 121.629 65.2396 116.527 69.0835 112.459C73.2196 108.098 79.1582 105.295 79.1582 105.295V105.28L79.6606 104.981ZM126.753 53.3996C124.174 43.2678 107.384 39.9476 91.4987 45.587C82.0367 48.9464 71.8159 54.2189 64.4487 61.1017C55.6885 69.2812 54.2991 76.4062 54.8763 79.3738C56.914 89.876 71.2958 96.7623 77.2167 101.846V101.885C75.4675 102.737 62.7066 109.138 59.7177 115.783C56.5079 122.754 60.22 127.749 62.6283 128.38C70.1095 130.456 77.8081 126.67 81.9477 120.546C85.9377 114.557 85.5814 106.876 83.8572 103.089C86.212 102.459 88.9979 102.16 92.5604 102.587C102.546 103.738 104.53 110.011 104.103 112.573C103.675 115.134 101.613 116.634 100.893 117.061C100.191 117.489 99.9668 117.617 100.038 117.916C100.113 118.344 100.466 118.344 101.039 118.269C101.819 118.141 106.237 116.135 106.458 111.29C106.661 105.148 100.815 98.3227 90.4264 98.4509C86.1408 98.5471 83.4297 98.8963 81.5202 99.6764C81.3815 99.4825 81.2118 99.3128 81.0179 99.1741C74.6018 92.2736 62.7066 87.4321 63.2054 78.2266C63.3586 74.8886 64.5627 66.0571 86.0089 55.3696C103.597 46.5916 117.644 49.0248 120.056 54.3686C123.547 61.9923 112.578 76.1711 94.2668 78.2266C87.2879 79.0068 83.6506 76.3171 82.7243 75.3161C81.7233 74.2366 81.595 74.1654 81.2174 74.3898C80.6616 74.6641 81.0143 75.5975 81.2174 76.1711C81.7909 77.5961 83.9997 80.0863 87.8614 81.3616C91.1995 82.4411 99.4039 83.0716 109.236 79.2277C120.277 74.9634 128.887 63.0682 126.397 53.0825L126.753 53.3996Z" fill="#E086B1"/>
</svg>
