<svg width="570" height="172" viewBox="0 0 570 172" fill="none" xmlns="http://www.w3.org/2000/svg">
<rect width="570" height="172" rx="10" fill="#6BAD3C" fill-opacity="0.1"/>
<path d="M205.053 88.7432C205.053 92.1357 203.822 94.7812 201.361 96.6797C198.9 98.5781 195.561 99.5273 191.342 99.5273C186.771 99.5273 183.256 98.9385 180.795 97.7607V93.4365C182.377 94.1045 184.1 94.6318 185.963 95.0186C187.826 95.4053 189.672 95.5986 191.5 95.5986C194.488 95.5986 196.738 95.0361 198.25 93.9111C199.762 92.7686 200.518 91.1865 200.518 89.165C200.518 87.8291 200.245 86.7393 199.7 85.8955C199.173 85.0342 198.276 84.2432 197.011 83.5225C195.763 82.8018 193.855 81.9844 191.289 81.0703C187.703 79.7871 185.137 78.2666 183.59 76.5088C182.061 74.751 181.296 72.457 181.296 69.627C181.296 66.6562 182.412 64.292 184.645 62.5342C186.877 60.7764 189.83 59.8975 193.504 59.8975C197.336 59.8975 200.86 60.6006 204.077 62.0068L202.68 65.9092C199.498 64.5732 196.404 63.9053 193.398 63.9053C191.025 63.9053 189.171 64.415 187.835 65.4346C186.499 66.4541 185.831 67.8691 185.831 69.6797C185.831 71.0156 186.077 72.1143 186.569 72.9756C187.062 73.8193 187.888 74.6016 189.048 75.3223C190.226 76.0254 192.019 76.8076 194.427 77.6689C198.47 79.1104 201.247 80.6572 202.759 82.3096C204.288 83.9619 205.053 86.1064 205.053 88.7432ZM238.459 71.6836C238.459 75.5859 237.123 78.5918 234.451 80.7012C231.797 82.793 227.991 83.8389 223.034 83.8389H218.499V99H214.017V60.4512H224.01C233.642 60.4512 238.459 64.1953 238.459 71.6836ZM218.499 79.9893H222.533C226.506 79.9893 229.38 79.3477 231.155 78.0645C232.931 76.7812 233.818 74.7246 233.818 71.8945C233.818 69.3457 232.983 67.4473 231.313 66.1992C229.643 64.9512 227.042 64.3271 223.509 64.3271H218.499V79.9893ZM252.116 82.9688V99H247.634V60.4512H258.207C262.935 60.4512 266.425 61.3564 268.675 63.167C270.942 64.9775 272.076 67.7021 272.076 71.3408C272.076 76.4385 269.492 79.8838 264.324 81.6768L274.792 99H269.492L260.158 82.9688H252.116ZM252.116 79.1191H258.26C261.424 79.1191 263.744 78.4951 265.221 77.2471C266.697 75.9814 267.435 74.0918 267.435 71.5781C267.435 69.0293 266.68 67.1924 265.168 66.0674C263.674 64.9424 261.265 64.3799 257.943 64.3799H252.116V79.1191ZM282.094 99V60.4512H286.577V99H282.094ZM328.368 99H323.253L302.185 66.6475H301.974C302.256 70.4443 302.396 73.9248 302.396 77.0889V99H298.257V60.4512H303.319L324.334 92.6719H324.545C324.509 92.1973 324.43 90.6768 324.307 88.1104C324.184 85.5264 324.14 83.6807 324.175 82.5732V60.4512H328.368V99ZM357.002 78.8027H370.106V97.5498C368.067 98.2002 365.993 98.6924 363.883 99.0264C361.774 99.3604 359.331 99.5273 356.553 99.5273C350.717 99.5273 346.173 97.7959 342.921 94.333C339.67 90.8525 338.044 85.9834 338.044 79.7256C338.044 75.7178 338.843 72.2109 340.443 69.2051C342.06 66.1816 344.38 63.8789 347.404 62.2969C350.427 60.6973 353.969 59.8975 358.03 59.8975C362.143 59.8975 365.975 60.6533 369.526 62.165L367.786 66.1201C364.305 64.6436 360.957 63.9053 357.74 63.9053C353.046 63.9053 349.381 65.3027 346.745 68.0977C344.108 70.8926 342.79 74.7686 342.79 79.7256C342.79 84.9287 344.055 88.875 346.587 91.5645C349.135 94.2539 352.871 95.5986 357.793 95.5986C360.464 95.5986 363.075 95.291 365.624 94.6758V82.8105H357.002V78.8027ZM395.575 60.4512H406.464C411.58 60.4512 415.28 61.2158 417.565 62.7451C419.85 64.2744 420.993 66.6914 420.993 69.9961C420.993 72.2812 420.351 74.1709 419.068 75.665C417.802 77.1416 415.948 78.0996 413.504 78.5391V78.8027C419.358 79.8047 422.285 82.8809 422.285 88.0312C422.285 91.4766 421.116 94.166 418.778 96.0996C416.457 98.0332 413.206 99 409.022 99H395.575V60.4512ZM400.057 76.957H407.44C410.604 76.957 412.88 76.4648 414.269 75.4805C415.658 74.4785 416.352 72.7998 416.352 70.4443C416.352 68.2822 415.579 66.7266 414.032 65.7773C412.485 64.8105 410.024 64.3271 406.649 64.3271H400.057V76.957ZM400.057 80.7539V95.1768H408.099C411.21 95.1768 413.548 94.5791 415.113 93.3838C416.695 92.1709 417.486 90.2812 417.486 87.7148C417.486 85.3242 416.677 83.5664 415.06 82.4414C413.46 81.3164 411.017 80.7539 407.73 80.7539H400.057ZM465.13 79.6729C465.13 85.8428 463.566 90.6943 460.437 94.2275C457.326 97.7607 452.993 99.5273 447.438 99.5273C441.76 99.5273 437.374 97.7959 434.281 94.333C431.204 90.8525 429.666 85.9482 429.666 79.6201C429.666 73.3447 431.213 68.4844 434.307 65.0391C437.401 61.5762 441.795 59.8447 447.491 59.8447C453.028 59.8447 457.352 61.6025 460.463 65.1182C463.575 68.6338 465.13 73.4854 465.13 79.6729ZM434.412 79.6729C434.412 84.8936 435.52 88.8574 437.735 91.5645C439.967 94.2539 443.202 95.5986 447.438 95.5986C451.709 95.5986 454.935 94.2539 457.115 91.5645C459.294 88.875 460.384 84.9111 460.384 79.6729C460.384 74.4873 459.294 70.5586 457.115 67.8867C454.952 65.1973 451.744 63.8525 447.491 63.8525C443.219 63.8525 439.967 65.2061 437.735 67.9131C435.52 70.6025 434.412 74.5225 434.412 79.6729ZM508.292 79.6729C508.292 85.8428 506.728 90.6943 503.599 94.2275C500.488 97.7607 496.155 99.5273 490.6 99.5273C484.922 99.5273 480.536 97.7959 477.443 94.333C474.366 90.8525 472.828 85.9482 472.828 79.6201C472.828 73.3447 474.375 68.4844 477.469 65.0391C480.563 61.5762 484.957 59.8447 490.653 59.8447C496.19 59.8447 500.514 61.6025 503.625 65.1182C506.737 68.6338 508.292 73.4854 508.292 79.6729ZM477.574 79.6729C477.574 84.8936 478.682 88.8574 480.897 91.5645C483.129 94.2539 486.364 95.5986 490.6 95.5986C494.871 95.5986 498.097 94.2539 500.277 91.5645C502.456 88.875 503.546 84.9111 503.546 79.6729C503.546 74.4873 502.456 70.5586 500.277 67.8867C498.115 65.1973 494.907 63.8525 490.653 63.8525C486.381 63.8525 483.129 65.2061 480.897 67.9131C478.682 70.6025 477.574 74.5225 477.574 79.6729ZM529.86 99H525.377V64.4326H513.169V60.4512H542.068V64.4326H529.86V99Z" fill="#6BAD3C"/>
<path d="M129.483 111.081C115.448 129.801 85.4805 123.483 66.2619 124.388C66.2619 124.388 62.857 124.581 59.4351 125.145C59.4351 125.145 60.7311 124.593 62.3852 124.018C75.8797 119.345 82.2575 118.406 90.46 114.188C105.864 106.288 121.201 89.0707 124.321 71.1872C118.455 88.3877 100.618 103.192 84.3778 109.202C73.2649 113.312 53.1596 117.307 53.1539 117.307C52.8808 117.167 52.6098 117.023 52.341 116.875C38.6703 110.216 38.2724 80.5615 63.1071 71.0051C73.9982 66.816 84.4062 69.1154 96.1784 66.3094C108.729 63.3212 123.27 53.9014 129.176 41.5845C135.798 61.2665 143.756 92.0475 129.483 111.081ZM129.721 35.4943C128.134 39.3063 126.102 42.9172 123.668 46.2517C118.377 40.7913 112.044 36.4506 105.046 33.4871C98.0478 30.5237 90.5265 28.9978 82.9283 29C51.5339 29 26 54.5673 26 85.9971C25.9963 93.8371 27.613 101.593 30.7483 108.777C33.8836 115.961 38.4698 122.417 44.2182 127.74L45.4687 128.845C44.5572 127.93 44.0456 126.691 44.0464 125.399C44.0472 124.107 44.5604 122.869 45.473 121.956C46.3856 121.043 47.6231 120.53 48.9132 120.53C50.2033 120.53 51.4405 121.044 52.3528 121.957C53.2651 122.871 53.7777 124.11 53.7779 125.401C53.7782 126.693 53.2661 127.932 52.3542 128.846C51.4423 129.76 50.2053 130.274 48.9152 130.274C47.6251 130.275 46.3874 129.763 45.4744 128.85L46.3214 129.602C56.5554 138.265 69.5269 143.013 82.9283 143C112.93 143 137.571 119.618 139.68 90.1123C141.238 75.6609 136.975 57.3107 129.721 35.4943Z" fill="#6BAD3C"/>
</svg>
